<svg width="139" height="18" viewBox="0 0 139 18" fill="none" xmlns="http://www.w3.org/2000/svg">
<path d="M23.6567 4.131C19.3617 4.131 16.5728 7.33917 16.5728 11.0502C16.5728 14.9288 19.25 17.9982 23.6567 17.9982C27.8958 17.9982 30.6847 14.7342 30.6847 11.0502C30.6847 7.20039 28.0075 4.131 23.6567 4.131ZM23.6297 14.7342C21.4263 14.7342 20.394 12.9481 20.394 11.0502C20.394 9.18116 21.4263 7.39504 23.6567 7.39504C25.86 7.39504 26.8635 9.15232 26.8635 11.0502C26.8635 12.9481 25.86 14.7342 23.6297 14.7342ZM14.8325 13.5861L12.9426 12.1388C12.0508 13.5068 10.6276 14.426 8.67466 14.426C5.6624 14.426 3.93287 12.0541 3.93287 8.9847C3.93287 6.02706 5.49485 3.57227 8.75754 3.57227C10.6546 3.57227 11.9373 4.40856 12.8021 5.77653L14.7118 4.30943C15.1514 3.97059 15.2505 3.34157 14.9244 2.89099C13.4669 0.874165 11.1969 0.00183105 8.73051 0.00183105C2.76184 0.00183105 0 4.46623 0 8.98651C0 14.3431 3.17981 18 8.67466 18C11.296 18 13.6092 17.0574 15.0523 14.9973C15.3694 14.5449 15.2685 13.9213 14.8325 13.5861ZM40.6637 4.131C38.7684 4.131 37.2623 4.94025 36.2588 6.25055C36.23 5.88828 36.1742 5.52601 36.0913 5.1349C35.9237 4.66088 35.5616 4.4374 34.9761 4.4374H32.7421V17.6918H36.5633V11.3854C36.5633 8.70714 37.846 7.39504 39.7431 7.39504C41.2492 7.39504 42.0852 8.2872 42.0852 10.1292V17.6918H45.9064V10.2698C45.9082 6.19468 44.0111 4.131 40.6637 4.131ZM55.5413 14.6314C55.3215 14.6945 55.0909 14.736 54.8585 14.736C53.3253 14.736 52.4605 13.8438 52.4605 11.946V7.62213H55.8782C56.4475 7.62213 56.9105 7.15893 56.9105 6.58939V4.4428H52.4624V2.54133C52.4624 1.97179 51.9993 1.50859 51.43 1.50859H48.643V11.8054C48.643 15.6372 50.3293 17.9982 53.7 17.9982C55.6728 17.9982 57.0546 17.1439 57.6888 16.6483L56.6943 15.0712C56.4493 14.6873 55.9809 14.5035 55.5413 14.6314ZM65.2735 4.131C63.1692 4.131 61.573 4.52391 59.9948 5.60351C59.4795 5.95677 59.3823 6.67951 59.775 7.16614L60.8379 8.48365C62.2324 7.39504 63.4034 7.17155 64.7708 7.17155C66.5562 7.17155 67.7272 8.11958 67.7272 10.1851V10.3527C66.6679 9.96157 65.468 9.76692 64.1295 9.76692C60.2813 9.76692 58.6904 11.8324 58.6904 13.952C58.6904 16.0174 60.0579 17.9982 63.5151 17.9982C65.7185 17.9982 67.1976 17.0466 68.0894 15.8192C68.1182 16.1815 68.147 16.5437 68.2299 16.9348C68.3416 17.4647 68.7595 17.6882 69.3451 17.6882H71.325V10.3815C71.3268 6.02886 68.6479 4.131 65.2735 4.131ZM67.5885 12.6975C67.3651 14.1214 66.2211 15.2082 64.1583 15.2082C63.0143 15.2082 62.2342 14.7612 62.2342 13.7573C62.2342 12.6975 62.9872 12.1676 64.7726 12.1676C65.832 12.1676 66.6967 12.3064 67.6173 12.5299L67.5885 12.6975ZM105.258 14.5107H99.2335L105.478 7.64917C105.84 7.25806 105.98 6.89579 105.98 6.3659V5.47374L105.984 4.4374H95.6915C95.0502 4.4374 94.661 4.79967 94.661 5.46834V7.61673H101.244L95.0268 14.4782C94.6646 14.8405 94.4971 15.2028 94.4971 15.7345V17.6918H106.292V15.5434C106.288 14.873 105.899 14.5107 105.258 14.5107ZM120.121 4.4374H117.199V10.7708C117.199 13.4491 115.999 14.7324 114.104 14.7324C112.654 14.7324 111.845 13.8402 111.845 12.0253V5.33496C111.845 4.83751 111.443 4.43559 110.946 4.43559H108.023V11.8865C108.023 15.9039 109.892 17.9982 113.183 17.9982C115.023 17.9982 116.473 17.189 117.505 15.9057C117.534 16.2409 117.588 16.6302 117.673 16.9655C117.811 17.4683 118.202 17.69 118.788 17.69H121.022V5.33496C121.02 4.83932 120.618 4.4374 120.121 4.4374ZM126.502 0.286601H123.715V16.6591C123.715 17.2286 124.178 17.6918 124.748 17.6918H127.535V1.31934C127.533 0.749803 127.072 0.286601 126.502 0.286601ZM86.0782 0.279391H82.4985L75.7209 17.6918H79.6249L81.104 13.5338H88.1879L89.694 17.6918H93.7098L87.2745 1.08864C87.0817 0.531719 86.6638 0.279391 86.0782 0.279391ZM82.1634 10.2698L84.646 3.57227L87.1286 10.2698H82.1634Z" fill="#2687E9"/>
<path d="M134.507 5.56023C134.055 5.30249 133.702 4.94743 133.45 4.49504C133.197 4.04265 133.071 3.53259 133.071 2.96666C133.071 2.40973 133.203 1.90688 133.464 1.4581C133.725 1.00931 134.08 0.654251 134.529 0.392911C134.977 0.131571 135.48 0 136.037 0C136.602 0 137.112 0.126164 137.564 0.378492C138.017 0.63082 138.37 0.984078 138.622 1.43647C138.874 1.88885 139 2.39892 139 2.96485C139 3.52178 138.871 4.02824 138.609 4.48062C138.348 4.93301 137.993 5.29168 137.545 5.55302C137.096 5.81436 136.593 5.94413 136.037 5.94413C135.469 5.94593 134.959 5.81796 134.507 5.56023ZM137.192 4.95284C137.536 4.75278 137.806 4.47882 138.002 4.12917C138.199 3.78131 138.296 3.39381 138.296 2.96666C138.296 2.53049 138.2 2.14118 138.008 1.79693C137.817 1.45269 137.548 1.18234 137.204 0.98588C136.86 0.789425 136.471 0.6921 136.035 0.6921C135.617 0.6921 135.235 0.793031 134.893 0.993091C134.549 1.19315 134.277 1.46891 134.077 1.81676C133.877 2.16461 133.776 2.54851 133.776 2.96666C133.776 3.40282 133.873 3.79393 134.069 4.14178C134.266 4.48964 134.536 4.76179 134.88 4.95825C135.224 5.1547 135.61 5.25203 136.037 5.25203C136.462 5.25383 136.847 5.1547 137.192 4.95284ZM136.075 1.49054C136.458 1.49054 136.756 1.57525 136.97 1.74467C137.183 1.91409 137.291 2.16101 137.291 2.48363C137.291 2.84951 137.121 3.11986 136.781 3.29468L137.552 4.36527H136.716L136.076 3.44969C136.033 3.4587 135.966 3.4623 135.88 3.4623H135.644V4.36347H134.952V1.48874H136.075V1.49054ZM136.584 2.48363C136.584 2.36107 136.543 2.27456 136.46 2.22229C136.377 2.17002 136.237 2.14479 136.035 2.14479H135.642V2.81165H136.035C136.401 2.80985 136.584 2.70171 136.584 2.48363Z" fill="#2687E9"/>
</svg>